<?xml version="1.0" standalone="no"?>
<!DOCTYPE svg PUBLIC "-//W3C//DTD SVG 20010904//EN"
 "http://www.w3.org/TR/2001/REC-SVG-20010904/DTD/svg10.dtd">
<svg version="1.0" xmlns="http://www.w3.org/2000/svg"
 width="640.000000pt" height="640.000000pt" viewBox="0 0 640.000000 640.000000"
 preserveAspectRatio="xMidYMid meet">
<metadata>
Created by potrace 1.11, written by Peter Selinger 2001-2013
</metadata>
<g transform="translate(0.000000,640.000000) scale(0.100000,-0.100000)"
fill="#000000" stroke="none">
<path d="M399 5199 c-220 -441 -394 -799 -387 -797 7 3 25 1 40 -3 15 -4 30
-4 33 1 3 5 18 5 33 2 15 -4 41 -6 57 -5 60 6 124 5 134 -2 6 -3 11 -1 11 5 0
6 5 8 11 5 6 -4 33 -7 60 -6 27 1 71 1 98 2 27 1 54 -2 60 -5 5 -4 12 -2 15 3
4 5 18 6 34 2 15 -5 36 -5 47 -1 11 4 32 4 47 -1 15 -4 30 -4 33 1 3 5 18 5
33 2 15 -4 41 -6 57 -5 60 6 124 5 134 -2 6 -3 11 -1 11 5 0 6 5 8 11 5 6 -4
33 -7 60 -6 27 1 71 1 98 2 27 1 54 -2 60 -5 5 -4 12 -2 15 3 4 5 18 6 34 2
15 -5 36 -5 47 -1 11 4 32 4 47 -1 15 -4 30 -4 33 1 3 5 18 5 33 2 15 -4 41
-6 57 -5 60 6 124 5 134 -2 6 -3 11 -1 11 5 0 6 5 8 11 5 6 -4 33 -7 60 -6 27
1 71 1 98 2 27 1 54 -2 60 -5 5 -4 12 -2 15 3 4 5 18 6 34 2 15 -5 36 -5 47
-1 11 4 32 4 47 -1 15 -4 30 -4 33 1 3 5 18 5 33 2 15 -4 41 -6 57 -5 60 6
124 5 134 -2 6 -3 11 -2 11 4 0 6 11 7 28 2 27 -7 74 -6 98 3 7 3 17 -1 22 -7
13 -17 22 -57 12 -57 -4 0 -4 -18 0 -40 4 -23 3 -40 -2 -40 -5 0 -6 -5 -3 -11
4 -5 6 -38 6 -72 -1 -34 -1 -71 -1 -82 0 -27 -1 -66 -4 -90 -1 -11 1 -35 5
-53 4 -17 3 -34 -1 -37 -5 -3 -5 -19 0 -35 5 -16 5 -32 0 -35 -5 -3 -5 -19 0
-35 5 -18 5 -32 -1 -36 -5 -3 -6 -10 -3 -16 4 -5 6 -36 5 -69 -1 -58 -2 -77 0
-101 0 -7 -1 -41 -2 -75 -1 -35 0 -65 3 -68 3 -4 2 -22 -2 -41 -4 -18 -5 -34
-1 -34 3 0 6 -16 6 -35 0 -19 -4 -35 -8 -35 -5 0 -5 -5 -2 -11 4 -5 6 -38 6
-72 -1 -34 -1 -71 -1 -82 0 -27 -1 -66 -4 -90 -1 -11 1 -35 5 -53 4 -17 3 -34
-1 -37 -5 -3 -5 -19 0 -35 5 -16 5 -32 0 -35 -5 -3 -5 -19 0 -35 5 -18 5 -32
-1 -36 -5 -3 -6 -10 -3 -16 4 -5 6 -36 5 -69 -1 -58 -2 -77 0 -101 0 -7 -1
-41 -2 -75 -1 -35 0 -65 3 -68 3 -4 2 -22 -2 -41 -4 -18 -5 -34 -1 -34 3 0 6
-16 6 -35 0 -19 -4 -35 -8 -35 -5 0 -5 -5 -2 -11 4 -5 6 -38 6 -72 -1 -34 -1
-71 -1 -82 0 -27 -1 -66 -4 -90 -1 -11 1 -35 5 -53 4 -17 3 -34 -1 -37 -5 -3
-5 -19 0 -35 5 -16 5 -32 0 -35 -5 -3 -5 -19 0 -35 5 -18 5 -32 -1 -36 -5 -3
-6 -10 -3 -16 4 -5 6 -36 5 -69 -1 -58 -2 -77 0 -101 0 -7 -1 -41 -2 -75 -1
-35 0 -65 3 -68 3 -4 2 -22 -2 -41 -4 -18 -5 -34 -1 -34 3 0 6 -16 6 -35 0
-19 -3 -35 -7 -35 -4 0 -3 -12 1 -27 4 -16 4 -41 1 -58 -3 -16 -3 -42 1 -56 4
-15 3 -32 -1 -39 -5 -7 -5 -23 0 -35 5 -12 5 -28 0 -35 -5 -7 -5 -23 0 -34 4
-12 4 -30 0 -41 -4 -11 -4 -31 0 -45 4 -14 4 -34 0 -45 -4 -11 -4 -32 0 -46 4
-15 4 -32 0 -39 -5 -7 -5 -23 0 -35 5 -12 5 -28 0 -35 -5 -7 -5 -23 0 -34 4
-12 4 -30 0 -41 -4 -11 -4 -31 0 -45 4 -14 4 -34 0 -45 -4 -11 -4 -32 0 -46 4
-15 4 -32 0 -39 -5 -7 -5 -23 0 -34 4 -12 4 -30 0 -42 -5 -11 -5 -27 0 -34 4
-6 5 -21 3 -31 -5 -19 15 -19 795 -19 l800 0 4 35 c2 19 2 35 -2 35 -3 0 -5
16 -5 35 0 19 4 35 8 35 5 0 5 5 2 11 -4 5 -6 38 -6 72 1 34 1 71 1 82 0 27 1
66 4 90 1 11 -1 35 -5 53 -4 17 -3 34 1 37 5 3 5 19 0 35 -5 16 -5 32 0 35 5
3 5 19 0 35 -5 18 -5 32 1 36 5 3 6 10 3 16 -4 5 -6 36 -5 69 1 58 2 77 0 102
0 6 1 40 2 74 1 35 0 65 -3 68 -3 4 -2 22 2 41 4 18 5 34 1 34 -3 0 -6 16 -6
35 0 19 4 35 8 35 5 0 5 5 2 11 -4 5 -6 38 -6 72 1 34 1 71 1 82 0 27 1 66 4
90 1 11 -1 35 -5 53 -4 17 -3 34 1 37 5 3 5 19 0 35 -5 16 -5 32 0 35 5 3 5
19 0 35 -5 18 -5 32 1 36 5 3 6 10 3 16 -4 5 -6 36 -5 69 1 58 2 77 0 102 0 6
1 40 2 74 1 35 0 65 -3 68 -3 4 -2 22 2 41 4 18 5 34 1 34 -3 0 -6 16 -6 35 0
19 3 35 7 35 3 0 3 12 -1 26 -3 14 -4 53 -1 86 3 32 3 61 -1 64 -4 2 -3 20 1
39 4 19 5 35 1 35 -3 0 -6 16 -6 35 0 19 4 35 8 35 5 0 5 5 2 11 -4 5 -6 38
-6 72 1 34 1 71 1 82 0 27 1 66 4 90 1 11 -1 35 -5 53 -4 17 -3 34 1 37 5 3 5
19 0 35 -5 16 -5 32 0 35 5 3 5 19 0 35 -5 18 -5 32 1 36 5 3 6 10 3 16 -4 5
-6 36 -5 69 1 58 2 77 0 102 0 6 1 40 2 74 1 35 0 65 -3 68 -3 4 -2 22 2 41 4
18 5 34 1 34 -3 0 -6 16 -6 35 0 19 3 35 7 35 3 0 3 12 -1 26 -3 14 -4 53 -1
86 3 32 3 61 -1 64 -4 2 -3 20 1 39 4 19 5 35 1 35 -3 0 -6 16 -6 35 0 19 4
35 8 35 5 0 5 5 2 11 -4 5 -6 38 -6 72 1 34 1 71 1 82 0 27 1 66 4 90 1 11 -1
34 -5 52 -5 23 -3 33 7 37 8 3 14 1 14 -3 0 -5 15 -6 33 -2 17 4 43 5 57 1 14
-4 34 -4 45 0 11 4 32 4 47 -1 15 -4 30 -4 33 1 3 5 18 5 33 1 15 -5 36 -5 47
-1 11 4 32 4 47 -1 16 -4 30 -3 34 2 3 5 10 7 15 3 9 -5 34 -6 156 -3 28 1 56
-2 62 -6 6 -3 11 -1 11 5 0 6 5 8 11 5 6 -4 33 -7 60 -6 27 1 71 1 98 2 27 1
54 -2 60 -5 5 -4 12 -2 15 3 4 5 19 6 34 3 15 -4 41 -6 57 -5 60 6 124 5 134
-2 6 -3 11 -1 11 5 0 6 5 8 11 5 6 -4 33 -7 60 -6 27 1 71 1 98 2 27 1 54 -2
60 -5 5 -4 12 -2 15 3 4 5 19 6 34 3 15 -4 41 -6 57 -5 56 5 123 5 132 0 5 -3
190 356 411 799 l402 804 -2800 0 -2800 0 -401 -801z"/>
</g>
</svg>
