<?xml version="1.0" encoding="UTF-8" standalone="no"?>

<svg
    xmlns:xlink="http://www.w3.org/1999/xlink"
    width="460px"
    height="142px"
    viewBox="0 0 460 142"
    version="1.1"
    xmlns="http://www.w3.org/2000/svg">

    <g fill="#383838">

        <polygon points="340 0 340 140 460 140 460 100 420 80 420 100 380 100 380 40 440 40 460 0" />

        <polygon points="310 140 320 140 320 0 280 -1.13686838e-13 280 80" />

        <polygon points="110 140 180 0 220 0 290 140 250 140 200 40 180 80 200 80 220 120 160 120 150 140" />

        <polygon points="0 40 20 0 160 0 140 40 100 40 100 140 60 140 60 40" />

    </g>

</svg>